<svg width="42" height="42" viewBox="0 0 42 42" fill="none" xmlns="http://www.w3.org/2000/svg">
<path fill-rule="evenodd" clip-rule="evenodd" d="M21.0005 41C9.95405 41 1 32.046 1 21.0005C1 9.9551 9.95405 1 21.0005 1C32.046 1 41 9.9551 41 21.0005C41 32.046 32.046 41 21.0005 41Z" stroke="white" stroke-width="2" stroke-miterlimit="2"/>
<path d="M12.5184 25.3932V21.6592H15.9655C16.5677 21.6655 17.0332 21.7444 17.3653 21.8967C17.9591 22.1689 18.2565 22.6692 18.2565 23.3975C18.2565 24.2593 17.9497 24.8415 17.337 25.1462C16.9986 25.3112 16.5256 25.3932 15.9192 25.3932H12.5184ZM12.5184 16.2532H15.5651C16.2356 16.2532 16.7873 16.3257 17.2203 16.4718C17.7216 16.6809 17.9728 17.1118 17.9728 17.7634C17.9728 18.353 17.7825 18.7628 17.4032 18.994C17.0248 19.2252 16.5309 19.3408 15.9224 19.3408H12.5184V16.2532ZM18.0148 27.6349C18.6222 27.5088 19.1498 27.2744 19.5975 26.9318C19.9927 26.6344 20.3237 26.2676 20.5886 25.8304C21.0047 25.1704 21.2118 24.4274 21.2118 23.5972C21.2118 22.7932 21.03 22.109 20.6663 21.5457C20.3027 20.9814 19.7636 20.5694 19.0489 20.3098C19.5187 20.0691 19.875 19.8033 20.1177 19.5122C20.5486 18.993 20.7662 18.3046 20.7662 17.4502C20.7662 16.62 20.5518 15.9074 20.123 15.3126C19.4105 14.3436 18.2008 13.8465 16.4941 13.8213H9.72498V27.8251H16.0359C16.7463 27.8251 17.4074 27.762 18.0148 27.6349Z" fill="white"/>
<path d="M25.518 20.0162C25.9005 19.6232 26.4386 19.4256 27.1333 19.4256C27.7723 19.4256 28.3083 19.6116 28.7402 19.9826C29.1721 20.3557 29.4128 20.9011 29.4611 21.62H24.796C24.8948 20.9453 25.1354 20.4114 25.518 20.0162ZM23.5832 26.9009C24.6362 27.7511 25.8532 28.1757 27.231 28.1757C28.901 28.1757 30.2 27.6723 31.1258 26.6645C31.7238 26.0308 32.058 25.4065 32.1305 24.7928H29.3665C29.2058 25.0965 29.0197 25.334 28.8085 25.5053C28.4228 25.8216 27.9215 25.9803 27.3056 25.9803C26.7234 25.9803 26.2263 25.851 25.8133 25.5904C25.1323 25.1732 24.7718 24.4438 24.7298 23.4055H32.2724C32.285 22.5112 32.2556 21.826 32.1831 21.3499C32.057 20.5386 31.7816 19.8239 31.3581 19.2102C30.8883 18.5124 30.2903 18.0006 29.5673 17.6779C28.8463 17.3542 28.035 17.1924 27.1323 17.1924C25.6157 17.1924 24.3809 17.6716 23.4298 18.629C22.4786 19.5854 22.0026 20.961 22.0026 22.755C22.0026 24.6698 22.5301 26.0518 23.5832 26.9009Z" fill="white"/>
<path d="M29.9995 14.625H23.9135V16.0385H29.9995V14.625Z" fill="white"/>
</svg>
