<svg width="42" height="43" viewBox="0 0 42 43" fill="none" xmlns="http://www.w3.org/2000/svg">
<path fill-rule="evenodd" clip-rule="evenodd" d="M21.0005 41.0117C9.95403 41.0117 1 32.0577 1 21.0122C1 9.96682 9.95403 1.01172 21.0005 1.01172C32.0459 1.01172 41 9.96682 41 21.0122C41 32.0577 32.0459 41.0117 21.0005 41.0117Z" stroke="white" stroke-width="2" stroke-miterlimit="2"/>
<path d="M16.0712 16.5547H11.9315V29.9258H16.0712V16.5547Z" fill="white"/>
<path d="M13.981 14.8053C15.3325 14.8053 16.4286 13.6987 16.4286 12.3367C16.4286 10.9747 15.3325 9.87012 13.981 9.87012C12.6284 9.87012 11.5333 10.9747 11.5333 12.3367C11.5333 13.6987 12.6284 14.8053 13.981 14.8053Z" fill="white"/>
<path d="M22.6866 22.9052C22.6866 21.0261 23.5515 19.9058 25.2089 19.9058C26.7306 19.9058 27.4621 20.9809 27.4621 22.9052V29.9244H31.5818V21.4581C31.5818 17.8765 29.5514 16.1445 26.716 16.1445C23.8795 16.1445 22.6866 18.3536 22.6866 18.3536V16.5533H18.7162V29.9244H22.6866V22.9052Z" fill="white"/>
</svg>
