<svg width="42" height="42" viewBox="0 0 42 42" fill="none" xmlns="http://www.w3.org/2000/svg">
<path fill-rule="evenodd" clip-rule="evenodd" d="M20.9995 41C9.95405 41 1 32.046 1 21.0005C1 9.95404 9.95405 1 20.9995 1C32.0449 1 41 9.95404 41 21.0005C41 32.046 32.0449 41 20.9995 41Z" stroke="white" stroke-width="2" stroke-miterlimit="2"/>
<path d="M20.9993 10.0342C18.021 10.0342 17.6479 10.0468 16.4782 10.1004C15.3106 10.154 14.514 10.339 13.8162 10.6101C13.0952 10.8907 12.4835 11.2659 11.874 11.8754C11.2644 12.485 10.8893 13.0966 10.6097 13.8176C10.3386 14.5154 10.1526 15.312 10.1 16.4796C10.0464 17.6493 10.0338 18.0224 10.0338 21.0008C10.0338 23.9791 10.0464 24.3522 10.1 25.5219C10.1526 26.6895 10.3386 27.4861 10.6097 28.184C10.8893 28.9049 11.2644 29.5166 11.874 30.1261C12.4835 30.7357 13.0952 31.1109 13.8162 31.3915C14.514 31.6615 15.3106 31.8476 16.4782 31.9012C17.6479 31.9537 18.021 31.9663 20.9993 31.9663C23.9777 31.9663 24.3508 31.9537 25.5205 31.9012C26.6881 31.8476 27.4847 31.6615 28.1825 31.3915C28.9035 31.1109 29.5152 30.7357 30.1247 30.1261C30.7343 29.5166 31.1094 28.9049 31.39 28.184C31.6612 27.4861 31.8461 26.6895 31.8997 25.5219C31.9533 24.3522 31.9659 23.9791 31.9659 21.0008C31.9659 18.0224 31.9533 17.6493 31.8997 16.4796C31.8461 15.312 31.6612 14.5154 31.39 13.8176C31.1094 13.0966 30.7343 12.485 30.1247 11.8754C29.5152 11.2659 28.9035 10.8907 28.1825 10.6101C27.4847 10.339 26.6881 10.154 25.5205 10.1004C24.3508 10.0468 23.9777 10.0342 20.9993 10.0342ZM20.9993 12.01C23.9283 12.01 24.2741 12.0215 25.4312 12.0741C26.5 12.1235 27.0812 12.3021 27.4668 12.4524C27.9787 12.651 28.3444 12.8886 28.728 13.2721C29.1116 13.6557 29.3491 14.0215 29.5477 14.5333C29.698 14.92 29.8767 15.5001 29.9261 16.57C29.9786 17.726 29.9902 18.0728 29.9902 21.0008C29.9902 23.9287 29.9786 24.2755 29.9261 25.4315C29.8767 26.5014 29.698 27.0815 29.5477 27.4683C29.3491 27.9801 29.1116 28.3448 28.728 28.7294C28.3444 29.113 27.9787 29.3505 27.4668 29.5491C27.0812 29.6994 26.5 29.8781 25.4312 29.9264C24.2741 29.979 23.9283 29.9905 20.9993 29.9905C18.0714 29.9905 17.7246 29.979 16.5686 29.9264C15.4998 29.8781 14.9186 29.6994 14.5319 29.5491C14.02 29.3505 13.6554 29.113 13.2718 28.7294C12.8871 28.3448 12.6496 27.9801 12.451 27.4683C12.3007 27.0815 12.122 26.5014 12.0737 25.4315C12.0211 24.2755 12.0096 23.9287 12.0096 21.0008C12.0096 18.0728 12.0211 17.726 12.0737 16.57C12.122 15.5001 12.3007 14.92 12.451 14.5333C12.6496 14.0215 12.8871 13.6557 13.2718 13.2721C13.6554 12.8886 14.02 12.651 14.5319 12.4524C14.9186 12.3021 15.4998 12.1235 16.5686 12.0741C17.7246 12.0215 18.0714 12.01 20.9993 12.01Z" fill="white"/>
<path d="M20.9994 24.6573C18.9805 24.6573 17.3442 23.0209 17.3442 21.0021C17.3442 18.9832 18.9805 17.3469 20.9994 17.3469C23.0183 17.3469 24.6546 18.9832 24.6546 21.0021C24.6546 23.0209 23.0183 24.6573 20.9994 24.6573ZM20.9994 15.3711C17.8896 15.3711 15.3684 17.8923 15.3684 21.0021C15.3684 24.1118 17.8896 26.633 20.9994 26.633C24.1102 26.633 26.6304 24.1118 26.6304 21.0021C26.6304 17.8923 24.1102 15.3711 20.9994 15.3711Z" fill="white"/>
<path d="M28.1683 15.1478C28.1683 15.874 27.5798 16.4636 26.8526 16.4636C26.1264 16.4636 25.5369 15.874 25.5369 15.1478C25.5369 14.4206 26.1264 13.832 26.8526 13.832C27.5798 13.832 28.1683 14.4206 28.1683 15.1478Z" fill="white"/>
</svg>
