<?xml version="1.0" standalone="no"?>
<!DOCTYPE svg PUBLIC "-//W3C//DTD SVG 20010904//EN"
 "http://www.w3.org/TR/2001/REC-SVG-20010904/DTD/svg10.dtd">
<svg version="1.0" xmlns="http://www.w3.org/2000/svg"
 width="560.000000pt" height="560.000000pt" viewBox="0 0 560.000000 560.000000"
 preserveAspectRatio="xMidYMid meet">
<metadata>
Created by potrace 1.14, written by Peter Selinger 2001-2017
</metadata>
<g transform="translate(0.000000,560.000000) scale(0.100000,-0.100000)"
fill="#000000" stroke="none">
<path d="M4207 5454 c-1 -1 -29 -4 -62 -7 -33 -3 -60 -6 -60 -7 0 0 -21 -3
-47 -5 -26 -2 -51 -6 -56 -8 -4 -3 -26 -8 -49 -12 -23 -3 -79 -17 -125 -31
-46 -13 -90 -26 -98 -28 -38 -10 -168 -61 -190 -75 -13 -9 -27 -16 -30 -15 -9
2 -141 -63 -205 -101 -33 -19 -71 -40 -85 -47 -14 -7 -85 -52 -158 -100 -73
-49 -135 -88 -137 -88 -4 0 -42 -23 -130 -77 -104 -64 -415 -203 -525 -234
-25 -7 -49 -14 -55 -15 -195 -57 -417 -51 -541 15 l-39 21 76 -6 c235 -20 443
165 444 396 0 82 -7 115 -38 184 -46 100 -167 199 -274 224 -57 13 -187 6
-238 -13 -176 -65 -285 -231 -272 -413 15 -210 140 -405 309 -486 40 -19 87
-38 103 -41 227 -46 442 -14 755 113 71 28 322 151 330 161 3 3 25 17 50 30
25 14 116 70 202 125 86 56 170 108 185 116 15 8 44 25 63 37 136 84 460 217
580 238 18 3 36 8 40 10 8 5 40 10 184 29 122 16 346 11 416 -9 8 -2 31 -7 50
-10 70 -12 247 -77 326 -120 130 -71 272 -189 358 -297 102 -129 178 -291 215
-463 20 -91 28 -295 12 -295 -5 0 -12 9 -16 19 -10 33 -104 118 -159 145 -146
72 -327 55 -444 -41 -67 -55 -90 -83 -123 -152 -37 -76 -47 -196 -24 -274 104
-345 553 -413 749 -113 31 48 92 196 80 196 -2 0 0 8 5 19 6 10 13 31 15 47 3
16 9 47 13 69 9 51 10 276 1 335 -27 178 -90 340 -189 487 -179 267 -432 441
-770 528 -58 15 -78 19 -179 30 -54 6 -239 13 -243 9z"/>
<path d="M1375 2757 c0 -881 -4 -1622 -8 -1647 -21 -117 -59 -233 -108 -333
-21 -42 -43 -83 -49 -90 -5 -6 -30 -39 -54 -72 -68 -92 -218 -225 -255 -225
-6 0 -11 -4 -11 -8 0 -13 -126 -65 -189 -78 -61 -12 -129 -20 -173 -18 -80 2
-90 -43 -15 -67 23 -7 49 -14 57 -16 8 -1 42 -9 74 -17 95 -24 151 -29 316
-30 151 -1 224 5 304 24 22 5 42 8 45 8 3 -1 13 1 21 4 8 3 52 17 98 32 78 24
251 101 262 116 3 4 19 14 36 23 43 22 182 136 230 189 89 99 162 219 203 336
49 137 49 138 47 1572 -2 740 -5 1354 -8 1365 -3 11 -11 39 -17 62 -53 195
-220 368 -423 437 -76 25 -96 28 -243 32 l-140 4 0 -1603z"/>
<path d="M2595 4351 c-3 -2 2 -16 10 -30 14 -28 26 -54 125 -276 34 -77 80
-177 101 -223 22 -45 39 -84 39 -87 0 -3 18 -44 40 -92 91 -196 122 -266 167
-370 21 -48 41 -91 46 -94 5 -3 8 -9 8 -13 -1 -3 5 -21 13 -39 18 -42 216
-484 254 -567 16 -36 107 -238 202 -450 95 -212 183 -409 196 -437 13 -29 36
-79 50 -110 61 -138 78 -173 83 -173 3 0 92 131 196 291 105 159 198 299 207
311 10 11 20 29 23 39 4 11 11 19 16 19 5 0 9 7 9 15 0 8 5 15 10 15 6 0 10 5
10 10 0 6 15 32 34 58 31 44 33 51 20 73 -7 13 -22 44 -33 69 -16 39 -59 134
-131 294 -10 22 -68 154 -130 291 -61 138 -121 270 -132 295 -11 25 -79 176
-150 335 -153 343 -157 351 -214 436 -84 126 -216 240 -359 312 -66 33 -185
75 -230 81 -11 2 -40 7 -65 11 -46 9 -408 14 -415 6z"/>
<path d="M295 1351 c-175 -56 -284 -196 -291 -373 -4 -92 14 -160 60 -233 81
-126 219 -198 364 -191 80 4 108 11 173 42 201 97 283 341 184 550 -40 86
-165 185 -264 210 -62 16 -167 14 -226 -5z"/>
</g>
</svg>
